<svg width="204" height="58" viewBox="0 0 204 58" fill="none" xmlns="http://www.w3.org/2000/svg">
<mask id="mask0_34_929" style="mask-type:alpha" maskUnits="userSpaceOnUse" x="0" y="0" width="48" height="58">
<path d="M7.39636 7.39637C16.663 -1.87025 31.6871 -1.87025 40.9537 7.39637C50.2204 16.663 49.1741 32.7334 39.9075 42L24.175 57.7324L8.4426 42C-0.824013 32.7334 -1.87026 16.663 7.39636 7.39637Z" fill="#E3E3E3"/>
</mask>
<g mask="url(#mask0_34_929)">
<path d="M7.39611 7.39582C16.6627 -1.8708 31.6869 -1.8708 40.9535 7.39582V7.39582C50.2201 16.6624 50.2201 31.6866 40.9535 40.9532L24.1748 57.7319L7.39611 40.9532C-1.8705 31.6866 -1.8705 16.6624 7.39611 7.39582V7.39582Z" fill="#E3E3E3"/>
<rect x="24.1731" y="-9.3847" width="47.4597" height="47.4573" transform="rotate(45 24.1731 -9.3847)" fill="#FCE4C0"/>
<rect x="24.179" y="-9.37872" width="35.5874" height="35.593" transform="rotate(45 24.179 -9.37872)" fill="#FAD59E"/>
<rect x="24.1748" y="-9.38287" width="23.7287" height="23.7287" transform="rotate(45 24.1748 -9.38287)" fill="#F9C26C"/>
<mask id="mask1_34_929" style="mask-type:alpha" maskUnits="userSpaceOnUse" x="-10" y="-10" width="68" height="68">
<rect x="24.1731" y="-9.38464" width="47.4597" height="47.4573" transform="rotate(45 24.1731 -9.38464)" fill="#FFD38F"/>
</mask>
<g mask="url(#mask1_34_929)">
<rect width="23.7368" height="59.3216" transform="matrix(-1 0 0 1 47.9111 -0.484558)" fill="#FECF86"/>
</g>
<mask id="mask2_34_929" style="mask-type:alpha" maskUnits="userSpaceOnUse" x="-1" y="-10" width="51" height="51">
<rect x="24.179" y="-9.3786" width="35.5874" height="35.593" transform="rotate(45 24.179 -9.3786)" fill="#FDA92B"/>
</mask>
<g mask="url(#mask2_34_929)">
<rect width="23.7368" height="59.3216" transform="matrix(-1 0 0 1 47.9114 -0.484497)" fill="#FDBE5D"/>
</g>
<mask id="mask3_34_929" style="mask-type:alpha" maskUnits="userSpaceOnUse" x="7" y="-10" width="34" height="35">
<rect x="24.175" y="-9.38281" width="23.7287" height="23.7287" transform="rotate(45 24.175 -9.38281)" fill="#FDA92B"/>
</mask>
<g mask="url(#mask3_34_929)">
<rect width="23.7368" height="59.3216" transform="matrix(-1 0 0 1 47.9116 -0.484558)" fill="#FDB13A"/>
</g>
</g>
<path d="M70.8097 46.272H64.6177V14.112H70.8097V46.272Z" fill="#FFF9F0"/>
<path d="M98.5417 46.272H92.7817V40.32L92.4457 40.224V31.968C92.4457 30.176 92.0137 28.944 91.1497 28.272C90.2857 27.6 88.7977 27.264 86.6857 27.264C84.6697 27.264 83.1817 27.6 82.2217 28.272C81.2937 28.912 80.8297 30.016 80.8297 31.584V31.824H74.6377V31.632C74.6377 29.744 75.1337 28.064 76.1257 26.592C77.1497 25.12 78.5897 23.968 80.4457 23.136C82.3337 22.272 84.5577 21.84 87.1177 21.84C89.7417 21.84 91.8857 22.272 93.5497 23.136C95.2457 24 96.4937 25.184 97.2937 26.688C98.1257 28.192 98.5417 29.952 98.5417 31.968V46.272ZM82.3177 46.752C79.7897 46.752 77.7897 46.192 76.3177 45.072C74.8457 43.952 74.1097 42.4 74.1097 40.416C74.1097 39.2 74.4137 38.16 75.0217 37.296C75.6297 36.432 76.5097 35.744 77.6617 35.232C78.8137 34.72 80.2057 34.384 81.8377 34.224L92.9257 33.072V36.672L83.5657 37.728C82.4777 37.824 81.6617 38.048 81.1177 38.4C80.6057 38.72 80.3497 39.264 80.3497 40.032C80.3497 40.8 80.6377 41.376 81.2137 41.76C81.8217 42.144 82.7657 42.336 84.0457 42.336C85.8057 42.336 87.3097 42.144 88.5577 41.76C89.8057 41.344 90.7657 40.72 91.4377 39.888C92.1097 39.024 92.4457 37.904 92.4457 36.528H93.1177V40.56H92.4457C91.8697 42.48 90.7017 44 88.9417 45.12C87.2137 46.208 85.0057 46.752 82.3177 46.752ZM94.6057 19.392H88.7017V13.248H94.6057V19.392ZM85.0057 19.392H79.1017V13.248H85.0057V19.392Z" fill="#FFF9F0"/>
<path d="M145.736 46.272H139.544V33.504C139.544 31.328 139.096 29.776 138.2 28.848C137.304 27.888 135.752 27.408 133.544 27.408C131.176 27.408 129.544 27.968 128.648 29.088C127.752 30.176 127.304 31.904 127.304 34.272L126.392 34.32L125.96 29.712H127.16C127.384 28.336 127.832 27.056 128.504 25.872C129.176 24.688 130.152 23.728 131.432 22.992C132.744 22.224 134.424 21.84 136.472 21.84C138.552 21.84 140.264 22.272 141.608 23.136C142.984 23.968 144.008 25.12 144.68 26.592C145.384 28.064 145.736 29.744 145.736 31.632V46.272ZM108.872 46.272H102.68V22.32H108.392V29.808L108.872 30.048V46.272ZM127.304 46.272H121.112V33.504C121.112 31.328 120.664 29.776 119.768 28.848C118.872 27.888 117.32 27.408 115.112 27.408C112.744 27.408 111.112 27.968 110.216 29.088C109.32 30.176 108.872 31.904 108.872 34.272L107.96 34.32L107.576 29.568H108.728C108.952 28.224 109.384 26.976 110.024 25.824C110.696 24.64 111.656 23.68 112.904 22.944C114.184 22.208 115.816 21.84 117.8 21.84C119.912 21.84 121.624 22.272 122.936 23.136C124.28 24 125.272 25.184 125.912 26.688C126.584 28.16 126.92 29.808 126.92 31.632H127.304V46.272Z" fill="#FFF9F0"/>
<path d="M175.611 46.272H169.467V33.504C169.467 31.424 168.971 29.888 167.979 28.896C166.987 27.904 165.307 27.408 162.939 27.408C160.507 27.408 158.747 27.984 157.659 29.136C156.603 30.256 156.075 31.968 156.075 34.272L155.163 34.32L154.779 29.712H155.979C156.203 28.368 156.699 27.104 157.467 25.92C158.235 24.704 159.307 23.728 160.683 22.992C162.059 22.224 163.787 21.84 165.867 21.84C168.043 21.84 169.851 22.288 171.291 23.184C172.763 24.048 173.851 25.216 174.555 26.688C175.259 28.16 175.611 29.808 175.611 31.632V46.272ZM156.075 46.272H149.883V22.32H155.595V29.808L156.075 30.048V46.272Z" fill="#FFF9F0"/>
<path d="M203.214 46.272H197.454V40.32L197.118 40.224V31.968C197.118 30.176 196.686 28.944 195.822 28.272C194.958 27.6 193.47 27.264 191.358 27.264C189.342 27.264 187.854 27.6 186.894 28.272C185.966 28.912 185.502 30.016 185.502 31.584V31.824H179.31V31.632C179.31 29.744 179.806 28.064 180.798 26.592C181.822 25.12 183.262 23.968 185.118 23.136C187.006 22.272 189.23 21.84 191.79 21.84C194.414 21.84 196.558 22.272 198.222 23.136C199.918 24 201.166 25.184 201.966 26.688C202.798 28.192 203.214 29.952 203.214 31.968V46.272ZM186.99 46.752C184.462 46.752 182.462 46.192 180.99 45.072C179.518 43.952 178.782 42.4 178.782 40.416C178.782 39.2 179.086 38.16 179.694 37.296C180.302 36.432 181.182 35.744 182.334 35.232C183.486 34.72 184.878 34.384 186.51 34.224L197.598 33.072V36.672L188.238 37.728C187.15 37.824 186.334 38.048 185.79 38.4C185.278 38.72 185.022 39.264 185.022 40.032C185.022 40.8 185.31 41.376 185.886 41.76C186.494 42.144 187.438 42.336 188.718 42.336C190.478 42.336 191.982 42.144 193.23 41.76C194.478 41.344 195.438 40.72 196.11 39.888C196.782 39.024 197.118 37.904 197.118 36.528H197.79V40.56H197.118C196.542 42.48 195.374 44 193.614 45.12C191.886 46.208 189.678 46.752 186.99 46.752Z" fill="#FFF9F0"/>
</svg>
